<svg width="11" height="10" viewBox="0 0 11 10" fill="none" xmlns="http://www.w3.org/2000/svg">
<path d="M5.41353 4.9528C5.43306 4.88118 5.42004 4.7998 5.37446 4.70866C5.3354 4.63704 5.28006 4.56217 5.20845 4.48405L1.21431 0.499675C1.11014 0.395508 0.986442 0.343425 0.843213 0.343425C0.699984 0.343425 0.577913 0.395508 0.477002 0.499675C0.37609 0.603842 0.325635 0.727539 0.325635 0.870769C0.325635 1.014 0.374463 1.1377 0.472119 1.24186L4.28071 4.94303L0.472119 8.65397C0.380973 8.73861 0.32889 8.84277 0.315869 8.96647C0.302848 9.09017 0.330518 9.20573 0.398877 9.31315C0.467236 9.42057 0.563265 9.49056 0.686963 9.52311C0.810661 9.55566 0.927848 9.54915 1.03853 9.50358C1.10363 9.47754 1.16222 9.43848 1.21431 9.38639L5.20845 5.40202C5.28006 5.32389 5.33215 5.25553 5.3647 5.19694C5.41027 5.10579 5.42655 5.02441 5.41353 4.9528ZM10.101 4.48405L6.10688 0.499675C6.00272 0.395508 5.87902 0.343425 5.73579 0.343425C5.59256 0.343425 5.47049 0.395508 5.36958 0.499675C5.26867 0.603842 5.21821 0.727539 5.21821 0.870769C5.21821 1.014 5.26704 1.1377 5.3647 1.24186L9.17329 4.9528L5.3647 8.64421C5.27355 8.73535 5.22147 8.84277 5.20845 8.96647C5.19543 9.09017 5.22472 9.2041 5.29634 9.30827C5.36795 9.41243 5.46398 9.48242 5.58442 9.51823C5.70487 9.55404 5.82043 9.54915 5.9311 9.50358C5.99621 9.47754 6.05155 9.43848 6.09712 9.38639L10.101 5.41178C10.1726 5.32064 10.2247 5.24902 10.2573 5.19694C10.3028 5.1123 10.3191 5.03092 10.3061 4.9528C10.3387 4.81608 10.2703 4.65983 10.101 4.48405Z" fill="#3E5765"/>
</svg>
