<svg width="710" height="121" viewBox="0 0 710 121" fill="none" xmlns="http://www.w3.org/2000/svg">
<path d="M166.058 27.7969V16.8878H170.054C170.828 16.8878 171.469 17.0156 171.976 17.2713C172.484 17.5234 172.864 17.8661 173.116 18.2994C173.369 18.729 173.495 19.2138 173.495 19.7536C173.495 20.2081 173.411 20.5916 173.244 20.9041C173.077 21.2131 172.854 21.4616 172.573 21.6499C172.296 21.8345 171.991 21.9695 171.657 22.0547V22.1612C172.019 22.179 172.372 22.2962 172.717 22.5128C173.065 22.7259 173.353 23.0295 173.58 23.4237C173.807 23.8178 173.921 24.2972 173.921 24.8619C173.921 25.4194 173.789 25.9201 173.527 26.364C173.267 26.8043 172.866 27.1541 172.323 27.4134C171.779 27.669 171.085 27.7969 170.24 27.7969H166.058ZM167.704 26.3853H170.08C170.869 26.3853 171.433 26.2326 171.774 25.9272C172.115 25.6218 172.285 25.2401 172.285 24.782C172.285 24.4375 172.198 24.1214 172.024 23.8338C171.85 23.5462 171.602 23.3171 171.279 23.1467C170.959 22.9762 170.579 22.891 170.139 22.891H167.704V26.3853ZM167.704 21.6072H169.91C170.279 21.6072 170.611 21.5362 170.906 21.3942C171.204 21.2521 171.44 21.0533 171.614 20.7976C171.792 20.5384 171.881 20.233 171.881 19.8814C171.881 19.4304 171.723 19.0522 171.407 18.7468C171.09 18.4414 170.606 18.2887 169.952 18.2887H167.704V21.6072ZM180.928 24.4038V19.6151H182.526V27.7969H180.96V26.38H180.875C180.687 26.8168 180.385 27.1808 179.969 27.4719C179.557 27.7596 179.044 27.9034 178.43 27.9034C177.904 27.9034 177.439 27.788 177.034 27.5572C176.633 27.3228 176.317 26.9766 176.086 26.5185C175.859 26.0604 175.745 25.494 175.745 24.8192V19.6151H177.338V24.6275C177.338 25.185 177.492 25.6289 177.801 25.9592C178.11 26.2894 178.511 26.4545 179.005 26.4545C179.303 26.4545 179.6 26.38 179.895 26.2308C180.193 26.0817 180.44 25.8562 180.635 25.5543C180.834 25.2525 180.932 24.869 180.928 24.4038ZM185.673 30.8651C185.435 30.8651 185.218 30.8455 185.023 30.8065C184.828 30.771 184.682 30.7319 184.586 30.6893L184.97 29.3842C185.261 29.4624 185.52 29.4961 185.747 29.4854C185.975 29.4748 186.175 29.3896 186.349 29.2298C186.527 29.07 186.683 28.8089 186.818 28.4467L187.015 27.9034L184.021 19.6151H185.726L187.798 25.9645H187.883L189.955 19.6151H191.665L188.293 28.8888C188.137 29.315 187.938 29.6754 187.697 29.9702C187.455 30.2685 187.168 30.4922 186.834 30.6413C186.5 30.7905 186.113 30.8651 185.673 30.8651Z" fill="#7C7E8C"/>
<rect x="218.57" y="18.7969" width="349.14" height="8" rx="2" fill="#00B386"/>
<path d="M579.056 27.7969L583.58 18.8501V18.7742H578.348V17.4332H585.199V18.8198L580.691 27.7969H579.056ZM590.355 27.9386C589.892 27.9318 589.437 27.8475 588.988 27.6855C588.543 27.5236 588.138 27.2537 587.774 26.8759C587.409 26.498 587.118 25.9903 586.898 25.3527C586.682 24.7151 586.574 23.9189 586.574 22.9642C586.574 22.0601 586.664 21.2572 586.843 20.5555C587.025 19.8538 587.286 19.2617 587.627 18.7793C587.968 18.2935 588.379 17.9241 588.862 17.6711C589.344 17.4181 589.886 17.2915 590.486 17.2915C591.104 17.2915 591.652 17.413 592.131 17.6559C592.61 17.8988 592.998 18.2345 593.295 18.6629C593.595 19.0914 593.786 19.5788 593.866 20.1254H592.323C592.218 19.6935 592.011 19.341 591.701 19.0677C591.39 18.7945 590.985 18.6578 590.486 18.6578C589.727 18.6578 589.135 18.9885 588.71 19.6497C588.288 20.3109 588.076 21.2302 588.072 22.4076H588.148C588.327 22.1141 588.546 21.8644 588.806 21.6586C589.069 21.4495 589.363 21.2892 589.687 21.1779C590.014 21.0632 590.358 21.0059 590.719 21.0059C591.319 21.0059 591.863 21.1526 592.348 21.4461C592.838 21.7362 593.227 22.1377 593.517 22.6505C593.807 23.1633 593.953 23.7503 593.953 24.4115C593.953 25.0727 593.802 25.6715 593.502 26.2079C593.205 26.7443 592.787 27.1694 592.247 27.4831C591.707 27.7935 591.077 27.9453 590.355 27.9386ZM590.35 26.6229C590.748 26.6229 591.104 26.525 591.417 26.3294C591.731 26.1337 591.979 25.8706 592.161 25.54C592.343 25.2093 592.434 24.8399 592.434 24.4317C592.434 24.0336 592.345 23.671 592.166 23.3438C591.991 23.0165 591.748 22.7567 591.438 22.5645C591.131 22.3722 590.78 22.276 590.385 22.276C590.085 22.276 589.806 22.3334 589.55 22.4481C589.297 22.5628 589.074 22.7213 588.882 22.9237C588.69 23.1262 588.538 23.3589 588.427 23.6221C588.319 23.8818 588.265 24.1568 588.265 24.4469C588.265 24.8349 588.354 25.1942 588.533 25.5248C588.715 25.8554 588.963 26.1219 589.277 26.3243C589.594 26.5233 589.951 26.6229 590.35 26.6229ZM601.205 25.8537V25.3072C601.205 24.9158 601.286 24.5582 601.448 24.2344C601.613 23.9071 601.853 23.6457 602.167 23.45C602.484 23.251 602.867 23.1515 603.315 23.1515C603.774 23.1515 604.159 23.2493 604.469 23.445C604.78 23.6406 605.014 23.9021 605.173 24.2293C605.335 24.5566 605.416 24.9158 605.416 25.3072V25.8537C605.416 26.245 605.335 26.6043 605.173 26.9316C605.011 27.2554 604.773 27.5169 604.459 27.7159C604.149 27.9116 603.768 28.0094 603.315 28.0094C602.86 28.0094 602.475 27.9116 602.162 27.7159C601.848 27.5169 601.61 27.2554 601.448 26.9316C601.286 26.6043 601.205 26.245 601.205 25.8537ZM602.384 25.3072V25.8537C602.384 26.1438 602.454 26.407 602.592 26.6431C602.73 26.8793 602.971 26.9973 603.315 26.9973C603.656 26.9973 603.894 26.8793 604.029 26.6431C604.164 26.407 604.231 26.1438 604.231 25.8537V25.3072C604.231 25.017 604.166 24.7539 604.034 24.5178C603.906 24.2816 603.666 24.1635 603.315 24.1635C602.978 24.1635 602.739 24.2816 602.597 24.5178C602.455 24.7539 602.384 25.017 602.384 25.3072ZM595.993 19.9229V19.3764C595.993 18.9851 596.074 18.6258 596.236 18.2986C596.401 17.9713 596.641 17.7099 596.955 17.5142C597.272 17.3185 597.655 17.2207 598.103 17.2207C598.562 17.2207 598.947 17.3185 599.257 17.5142C599.567 17.7099 599.802 17.9713 599.96 18.2986C600.119 18.6258 600.198 18.9851 600.198 19.3764V19.9229C600.198 20.3143 600.117 20.6736 599.955 21.0008C599.797 21.3247 599.561 21.5861 599.247 21.7852C598.937 21.9808 598.555 22.0787 598.103 22.0787C597.644 22.0787 597.258 21.9808 596.944 21.7852C596.634 21.5861 596.398 21.3247 596.236 21.0008C596.074 20.6736 595.993 20.3143 595.993 19.9229ZM597.177 19.3764V19.9229C597.177 20.2131 597.245 20.4762 597.38 20.7124C597.518 20.9485 597.759 21.0666 598.103 21.0666C598.441 21.0666 598.677 20.9485 598.812 20.7124C598.95 20.4762 599.019 20.2131 599.019 19.9229V19.3764C599.019 19.0863 598.953 18.8232 598.822 18.587C598.69 18.3509 598.451 18.2328 598.103 18.2328C597.766 18.2328 597.526 18.3509 597.385 18.587C597.246 18.8232 597.177 19.0863 597.177 19.3764ZM596.474 27.7969L603.599 17.4332H604.808L597.683 27.7969H596.474Z" fill="#7C7E8C"/>
<path d="M166.068 66.7969V55.7969H167.728V60.5771H173.212V55.7969H174.877V66.7969H173.212V62.0005H167.728V66.7969H166.068ZM180.64 66.9634C179.867 66.9634 179.192 66.7861 178.615 66.4316C178.039 66.0771 177.591 65.5812 177.273 64.9438C176.954 64.3065 176.795 63.5617 176.795 62.7095C176.795 61.8537 176.954 61.1053 177.273 60.4644C177.591 59.8234 178.039 59.3257 178.615 58.9712C179.192 58.6167 179.867 58.4395 180.64 58.4395C181.414 58.4395 182.089 58.6167 182.665 58.9712C183.242 59.3257 183.689 59.8234 184.008 60.4644C184.327 61.1053 184.486 61.8537 184.486 62.7095C184.486 63.5617 184.327 64.3065 184.008 64.9438C183.689 65.5812 183.242 66.0771 182.665 66.4316C182.089 66.7861 181.414 66.9634 180.64 66.9634ZM180.646 65.6152C181.147 65.6152 181.562 65.4827 181.892 65.2178C182.221 64.9528 182.465 64.6001 182.622 64.1597C182.783 63.7192 182.864 63.234 182.864 62.7041C182.864 62.1777 182.783 61.6943 182.622 61.2539C182.465 60.8099 182.221 60.4536 181.892 60.1851C181.562 59.9165 181.147 59.7822 180.646 59.7822C180.141 59.7822 179.722 59.9165 179.389 60.1851C179.059 60.4536 178.814 60.8099 178.653 61.2539C178.495 61.6943 178.417 62.1777 178.417 62.7041C178.417 63.234 178.495 63.7192 178.653 64.1597C178.814 64.6001 179.059 64.9528 179.389 65.2178C179.722 65.4827 180.141 65.6152 180.646 65.6152ZM187.885 55.7969V66.7969H186.279V55.7969H187.885ZM193.133 66.958C192.467 66.958 191.873 66.7879 191.35 66.4478C190.831 66.104 190.423 65.6152 190.126 64.9814C189.832 64.3441 189.685 63.5796 189.685 62.688C189.685 61.7964 189.834 61.0337 190.131 60.3999C190.432 59.7661 190.844 59.2809 191.366 58.9443C191.889 58.6077 192.482 58.4395 193.144 58.4395C193.656 58.4395 194.068 58.5254 194.38 58.6973C194.695 58.8656 194.938 59.0625 195.11 59.2881C195.285 59.5137 195.422 59.7124 195.518 59.8843H195.615V55.7969H197.221V66.7969H195.652V65.5132H195.518C195.422 65.6886 195.282 65.8892 195.099 66.1147C194.92 66.3403 194.673 66.5373 194.358 66.7056C194.043 66.8739 193.635 66.958 193.133 66.958ZM193.488 65.5884C193.95 65.5884 194.34 65.4666 194.659 65.2231C194.981 64.9761 195.225 64.6341 195.389 64.1973C195.558 63.7604 195.642 63.252 195.642 62.6719C195.642 62.099 195.559 61.5977 195.395 61.168C195.23 60.7383 194.988 60.4035 194.67 60.1636C194.351 59.9237 193.957 59.8037 193.488 59.8037C193.005 59.8037 192.602 59.929 192.279 60.1797C191.957 60.4303 191.714 60.7723 191.549 61.2056C191.388 61.6388 191.307 62.1276 191.307 62.6719C191.307 63.2233 191.39 63.7192 191.554 64.1597C191.719 64.6001 191.963 64.9492 192.285 65.207C192.611 65.4613 193.012 65.5884 193.488 65.5884Z" fill="#7C7E8C"/>
<rect x="218.57" y="56.7969" width="33" height="8" rx="2" fill="#C7C8CE"/>
<path d="M266.503 66.9522C265.707 66.9522 265.005 66.8154 264.394 66.5416C263.788 66.2679 263.312 65.8906 262.968 65.4097C262.624 64.9288 262.454 64.3814 262.458 63.7673C262.454 63.2864 262.552 62.8444 262.752 62.4412C262.955 62.0343 263.231 61.6958 263.579 61.4258C263.926 61.152 264.315 60.9782 264.744 60.9042V60.8376C264.178 60.7008 263.725 60.3974 263.384 59.9276C263.044 59.4579 262.876 58.9178 262.879 58.3074C262.876 57.7267 263.029 57.2088 263.34 56.7538C263.654 56.2951 264.085 55.9345 264.633 55.6718C265.18 55.4092 265.804 55.2779 266.503 55.2779C267.194 55.2779 267.812 55.411 268.356 55.6774C268.903 55.94 269.334 56.3007 269.649 56.7594C269.963 57.2144 270.122 57.7304 270.126 58.3074C270.122 58.9178 269.948 59.4579 269.604 59.9276C269.26 60.3974 268.813 60.7008 268.262 60.8376V60.9042C268.687 60.9782 269.07 61.152 269.41 61.4258C269.754 61.6958 270.028 62.0343 270.231 62.4412C270.439 62.8444 270.544 63.2864 270.548 63.7673C270.544 64.3814 270.37 64.9288 270.026 65.4097C269.682 65.8906 269.205 66.2679 268.595 66.5416C267.988 66.8154 267.291 66.9522 266.503 66.9522ZM266.503 65.5484C266.973 65.5484 267.379 65.4707 267.723 65.3154C268.067 65.1563 268.334 64.9362 268.522 64.6551C268.711 64.3703 268.807 64.0373 268.811 63.6563C268.807 63.2605 268.704 62.911 268.5 62.6076C268.3 62.3043 268.029 62.0657 267.685 61.8919C267.341 61.718 266.947 61.6311 266.503 61.6311C266.055 61.6311 265.657 61.718 265.31 61.8919C264.962 62.0657 264.688 62.3043 264.489 62.6076C264.289 62.911 264.191 63.2605 264.194 63.6563C264.191 64.0373 264.281 64.3703 264.466 64.6551C264.655 64.9362 264.923 65.1563 265.271 65.3154C265.619 65.4707 266.029 65.5484 266.503 65.5484ZM266.503 60.2606C266.88 60.2606 267.215 60.1847 267.507 60.0331C267.799 59.8814 268.029 59.6706 268.195 59.4005C268.365 59.1305 268.452 58.8142 268.456 58.4517C268.452 58.0966 268.367 57.7859 268.201 57.5195C268.038 57.2532 267.81 57.0479 267.518 56.9036C267.226 56.7557 266.887 56.6817 266.503 56.6817C266.111 56.6817 265.767 56.7557 265.471 56.9036C265.178 57.0479 264.951 57.2532 264.788 57.5195C264.625 57.7859 264.546 58.0966 264.55 58.4517C264.546 58.8142 264.627 59.1305 264.794 59.4005C264.96 59.6706 265.19 59.8814 265.482 60.0331C265.778 60.1847 266.118 60.2606 266.503 60.2606ZM278.467 64.6662V64.0669C278.467 63.6378 278.556 63.2457 278.733 62.8906C278.915 62.5318 279.177 62.2451 279.521 62.0306C279.869 61.8123 280.289 61.7032 280.781 61.7032C281.284 61.7032 281.706 61.8105 282.046 62.025C282.386 62.2396 282.643 62.5263 282.817 62.8851C282.995 63.2439 283.083 63.6378 283.083 64.0669V64.6662C283.083 65.0953 282.995 65.4892 282.817 65.8481C282.64 66.2032 282.379 66.4898 282.035 66.7081C281.694 66.9226 281.276 67.0299 280.781 67.0299C280.281 67.0299 279.86 66.9226 279.516 66.7081C279.172 66.4898 278.911 66.2032 278.733 65.8481C278.556 65.4892 278.467 65.0953 278.467 64.6662ZM279.76 64.0669V64.6662C279.76 64.9843 279.836 65.2728 279.987 65.5318C280.139 65.7907 280.403 65.9202 280.781 65.9202C281.154 65.9202 281.415 65.7907 281.563 65.5318C281.711 65.2728 281.785 64.9843 281.785 64.6662V64.0669C281.785 63.7488 281.713 63.4603 281.569 63.2013C281.428 62.9424 281.165 62.8129 280.781 62.8129C280.411 62.8129 280.148 62.9424 279.993 63.2013C279.838 63.4603 279.76 63.7488 279.76 64.0669ZM272.752 58.1632V57.5639C272.752 57.1348 272.841 56.7409 273.018 56.3821C273.199 56.0232 273.462 55.7366 273.806 55.522C274.154 55.3075 274.574 55.2002 275.066 55.2002C275.569 55.2002 275.99 55.3075 276.331 55.522C276.671 55.7366 276.928 56.0232 277.102 56.3821C277.276 56.7409 277.363 57.1348 277.363 57.5639V58.1632C277.363 58.5923 277.274 58.9862 277.096 59.345C276.923 59.7002 276.664 59.9868 276.32 60.2051C275.979 60.4196 275.561 60.5269 275.066 60.5269C274.563 60.5269 274.139 60.4196 273.795 60.2051C273.455 59.9868 273.196 59.7002 273.018 59.345C272.841 58.9862 272.752 58.5923 272.752 58.1632ZM274.05 57.5639V58.1632C274.05 58.4813 274.124 58.7698 274.272 59.0288C274.424 59.2877 274.688 59.4172 275.066 59.4172C275.436 59.4172 275.695 59.2877 275.842 59.0288C275.994 58.7698 276.07 58.4813 276.07 58.1632V57.5639C276.07 57.2458 275.998 56.9573 275.854 56.6983C275.709 56.4394 275.447 56.3099 275.066 56.3099C274.696 56.3099 274.433 56.4394 274.278 56.6983C274.126 56.9573 274.05 57.2458 274.05 57.5639ZM273.279 66.7969L281.092 55.4332H282.418L274.605 66.7969H273.279Z" fill="#7C7E8C"/>
<path d="M172.068 96.6865C172.011 96.1781 171.774 95.7842 171.359 95.5049C170.944 95.222 170.421 95.0806 169.791 95.0806C169.339 95.0806 168.949 95.1522 168.62 95.2954C168.29 95.4351 168.034 95.6284 167.852 95.8755C167.673 96.119 167.583 96.3965 167.583 96.708C167.583 96.9694 167.644 97.195 167.766 97.3848C167.891 97.5745 168.054 97.7339 168.255 97.8628C168.459 97.9881 168.677 98.0937 168.91 98.1797C169.143 98.262 169.366 98.3301 169.581 98.3838L170.655 98.6631C171.006 98.749 171.366 98.8654 171.735 99.0122C172.104 99.159 172.446 99.3524 172.761 99.5923C173.076 99.8322 173.33 100.129 173.524 100.484C173.72 100.838 173.819 101.263 173.819 101.757C173.819 102.38 173.658 102.933 173.336 103.417C173.017 103.9 172.553 104.281 171.944 104.561C171.339 104.84 170.607 104.979 169.748 104.979C168.924 104.979 168.212 104.849 167.61 104.587C167.008 104.326 166.538 103.955 166.197 103.476C165.857 102.992 165.669 102.419 165.633 101.757H167.298C167.331 102.154 167.46 102.486 167.685 102.75C167.914 103.012 168.206 103.207 168.561 103.336C168.919 103.461 169.311 103.524 169.737 103.524C170.206 103.524 170.623 103.451 170.988 103.304C171.357 103.153 171.647 102.946 171.859 102.681C172.07 102.412 172.175 102.099 172.175 101.741C172.175 101.415 172.082 101.148 171.896 100.94C171.714 100.733 171.465 100.561 171.15 100.425C170.838 100.289 170.485 100.169 170.091 100.065L168.792 99.7104C167.911 99.4705 167.213 99.1178 166.697 98.6523C166.185 98.1868 165.929 97.571 165.929 96.8047C165.929 96.1709 166.101 95.6177 166.444 95.145C166.788 94.6724 167.254 94.3053 167.841 94.0439C168.428 93.779 169.091 93.6465 169.828 93.6465C170.573 93.6465 171.23 93.7772 171.799 94.0386C172.372 94.3 172.824 94.6598 173.153 95.1182C173.482 95.5729 173.654 96.0957 173.669 96.6865H172.068ZM179.229 104.963C178.416 104.963 177.716 104.79 177.129 104.442C176.545 104.091 176.094 103.599 175.775 102.965C175.46 102.328 175.303 101.581 175.303 100.726C175.303 99.8805 175.46 99.1357 175.775 98.4912C176.094 97.8467 176.538 97.3436 177.107 96.9819C177.68 96.6203 178.35 96.4395 179.116 96.4395C179.582 96.4395 180.033 96.5164 180.47 96.6704C180.907 96.8244 181.299 97.0661 181.646 97.3955C181.993 97.7249 182.267 98.1528 182.468 98.6792C182.668 99.202 182.769 99.8376 182.769 100.586V101.155H176.21V99.9521H181.195C181.195 99.5296 181.109 99.1554 180.937 98.8296C180.765 98.5002 180.523 98.2406 180.212 98.0508C179.904 97.861 179.542 97.7661 179.127 97.7661C178.676 97.7661 178.282 97.8771 177.945 98.0991C177.612 98.3175 177.354 98.604 177.172 98.9585C176.993 99.3094 176.903 99.6908 176.903 100.103V101.042C176.903 101.594 177 102.063 177.193 102.45C177.39 102.836 177.664 103.132 178.015 103.336C178.366 103.536 178.776 103.637 179.245 103.637C179.549 103.637 179.827 103.594 180.078 103.508C180.328 103.418 180.545 103.286 180.728 103.11C180.91 102.935 181.05 102.718 181.146 102.46L182.667 102.734C182.545 103.182 182.326 103.574 182.011 103.911C181.7 104.244 181.308 104.503 180.835 104.689C180.366 104.872 179.831 104.963 179.229 104.963ZM186.156 93.7969V104.797H184.55V93.7969H186.156ZM189.923 93.7969V104.797H188.317V93.7969H189.923Z" fill="#7C7E8C"/>
<rect x="218.57" y="94.7969" width="66.5" height="8" rx="2" fill="#F7324C"/>
<path d="M300.474 93.4332V104.797H298.754V95.1533H298.688L295.969 96.9289V95.2865L298.804 93.4332H300.474ZM307.516 104.952C307.009 104.945 306.509 104.852 306.017 104.675C305.529 104.497 305.085 104.201 304.686 103.787C304.286 103.373 303.966 102.816 303.726 102.117C303.489 101.418 303.371 100.545 303.371 99.4979C303.371 98.5066 303.469 97.6262 303.665 96.8568C303.865 96.0873 304.151 95.4382 304.525 94.9092C304.899 94.3765 305.35 93.9715 305.879 93.694C306.408 93.4166 307.001 93.2779 307.66 93.2779C308.337 93.2779 308.938 93.411 309.463 93.6774C309.988 93.9437 310.414 94.3118 310.739 94.7816C311.069 95.2513 311.278 95.7859 311.366 96.3851H309.674C309.559 95.9116 309.332 95.5251 308.992 95.2255C308.651 94.9258 308.207 94.776 307.66 94.776C306.828 94.776 306.178 95.1385 305.712 95.8635C305.25 96.5886 305.017 97.5966 305.013 98.8876H305.096C305.292 98.5657 305.533 98.292 305.818 98.0664C306.106 97.837 306.428 97.6613 306.783 97.5392C307.142 97.4135 307.519 97.3506 307.915 97.3506C308.574 97.3506 309.169 97.5115 309.702 97.8333C310.238 98.1514 310.665 98.5916 310.984 99.1539C311.302 99.7162 311.461 100.36 311.461 101.085C311.461 101.81 311.296 102.466 310.967 103.055C310.641 103.643 310.183 104.109 309.591 104.453C308.999 104.793 308.307 104.96 307.516 104.952ZM307.51 103.51C307.947 103.51 308.337 103.402 308.681 103.188C309.025 102.973 309.297 102.685 309.496 102.322C309.696 101.96 309.796 101.555 309.796 101.107C309.796 100.671 309.698 100.273 309.502 99.9141C309.31 99.5552 309.043 99.2704 308.703 99.0596C308.366 98.8487 307.982 98.7433 307.549 98.7433C307.22 98.7433 306.915 98.8062 306.633 98.932C306.356 99.0577 306.112 99.2316 305.901 99.4535C305.69 99.6755 305.524 99.9307 305.402 100.219C305.283 100.504 305.224 100.806 305.224 101.124C305.224 101.549 305.322 101.943 305.518 102.306C305.718 102.668 305.99 102.96 306.334 103.182C306.681 103.4 307.074 103.51 307.51 103.51ZM319.413 102.666V102.067C319.413 101.638 319.502 101.246 319.68 100.891C319.861 100.532 320.124 100.245 320.468 100.031C320.815 99.8123 321.235 99.7032 321.727 99.7032C322.23 99.7032 322.652 99.8105 322.992 100.025C323.333 100.24 323.59 100.526 323.763 100.885C323.941 101.244 324.03 101.638 324.03 102.067V102.666C324.03 103.095 323.941 103.489 323.763 103.848C323.586 104.203 323.325 104.49 322.981 104.708C322.641 104.923 322.223 105.03 321.727 105.03C321.228 105.03 320.806 104.923 320.462 104.708C320.118 104.49 319.857 104.203 319.68 103.848C319.502 103.489 319.413 103.095 319.413 102.666ZM320.706 102.067V102.666C320.706 102.984 320.782 103.273 320.934 103.532C321.085 103.791 321.35 103.92 321.727 103.92C322.101 103.92 322.362 103.791 322.509 103.532C322.657 103.273 322.731 102.984 322.731 102.666V102.067C322.731 101.749 322.659 101.46 322.515 101.201C322.374 100.942 322.112 100.813 321.727 100.813C321.357 100.813 321.095 100.942 320.939 101.201C320.784 101.46 320.706 101.749 320.706 102.067ZM313.698 96.1632V95.5639C313.698 95.1348 313.787 94.7409 313.965 94.3821C314.146 94.0232 314.408 93.7366 314.752 93.522C315.1 93.3075 315.52 93.2002 316.012 93.2002C316.515 93.2002 316.937 93.3075 317.277 93.522C317.617 93.7366 317.874 94.0232 318.048 94.3821C318.222 94.7409 318.309 95.1348 318.309 95.5639V96.1632C318.309 96.5923 318.22 96.9862 318.043 97.345C317.869 97.7002 317.61 97.9868 317.266 98.2051C316.926 98.4196 316.508 98.5269 316.012 98.5269C315.509 98.5269 315.085 98.4196 314.741 98.2051C314.401 97.9868 314.142 97.7002 313.965 97.345C313.787 96.9862 313.698 96.5923 313.698 96.1632ZM314.997 95.5639V96.1632C314.997 96.4813 315.071 96.7698 315.219 97.0288C315.37 97.2877 315.635 97.4172 316.012 97.4172C316.382 97.4172 316.641 97.2877 316.789 97.0288C316.94 96.7698 317.016 96.4813 317.016 96.1632V95.5639C317.016 95.2458 316.944 94.9573 316.8 94.6983C316.656 94.4394 316.393 94.3099 316.012 94.3099C315.642 94.3099 315.379 94.4394 315.224 94.6983C315.072 94.9573 314.997 95.2458 314.997 95.5639ZM314.225 104.797L322.038 93.4332H323.364L315.551 104.797H314.225Z" fill="#7C7E8C"/>
<rect y="0.796875" width="116.86" height="120" rx="58.43" fill="#EBF9F4"/>
<path d="M33.019 73.0469L44.5769 50.1895V49.9956H31.209V46.5696H48.714V50.112L37.1948 73.0469H33.019ZM61.8847 73.4089C60.704 73.3916 59.5404 73.1762 58.3941 72.7625C57.2564 72.3487 56.2221 71.6592 55.2913 70.6939C54.3604 69.7286 53.6149 68.4315 53.0547 66.8025C52.5031 65.1735 52.2273 63.1394 52.2273 60.7003C52.2273 58.3904 52.4557 56.3391 52.9125 54.5464C53.3779 52.7537 54.0459 51.241 54.9164 50.0085C55.7869 48.7674 56.8384 47.8237 58.0709 47.1772C59.3034 46.5308 60.6867 46.2076 62.2209 46.2076C63.7981 46.2076 65.1987 46.5179 66.4226 47.1384C67.6465 47.759 68.6377 48.6166 69.3961 49.7112C70.1632 50.8058 70.6502 52.0512 70.857 53.4475H66.9139C66.6467 52.3443 66.1166 51.4436 65.3237 50.7455C64.5307 50.0473 63.4965 49.6983 62.2209 49.6983C60.2816 49.6983 58.769 50.5429 57.683 52.2322C56.6057 53.9215 56.0627 56.2702 56.0541 59.2782H56.248C56.7048 58.5283 57.265 57.8905 57.9287 57.3648C58.6009 56.8304 59.3508 56.421 60.1782 56.1366C61.0142 55.8435 61.8934 55.697 62.8156 55.697C64.3498 55.697 65.7374 56.0719 66.9785 56.8218C68.2283 57.563 69.2237 58.5887 69.965 59.8987C70.7062 61.2088 71.0768 62.7085 71.0768 64.3978C71.0768 66.0871 70.6933 67.617 69.9262 68.9874C69.1677 70.3578 68.099 71.4438 66.72 72.2453C65.3409 73.0383 63.7292 73.4261 61.8847 73.4089ZM61.8718 70.0475C62.8888 70.0475 63.7981 69.7975 64.5997 69.2977C65.4013 68.7978 66.0347 68.1255 66.5002 67.2808C66.9656 66.4362 67.1983 65.4924 67.1983 64.4495C67.1983 63.4325 66.9699 62.506 66.5131 61.6699C66.0649 60.8339 65.4444 60.1702 64.6514 59.679C63.8671 59.1877 62.9707 58.942 61.9623 58.942C61.1952 58.942 60.4842 59.0886 59.8291 59.3816C59.1827 59.6746 58.6139 60.0797 58.1226 60.5969C57.6313 61.114 57.2435 61.7087 56.959 62.381C56.6832 63.0446 56.5453 63.7471 56.5453 64.4883C56.5453 65.4795 56.7737 66.3974 57.2305 67.242C57.696 68.0867 58.3294 68.7676 59.131 69.2847C59.9412 69.7932 60.8548 70.0475 61.8718 70.0475Z" fill="#0FBA83"/>
<path d="M82.7732 64.6151V64.0014C82.7732 63.562 82.8641 63.1605 83.0459 62.7969C83.2315 62.4295 83.5005 62.1359 83.8527 61.9162C84.2088 61.6927 84.6387 61.581 85.1425 61.581C85.6577 61.581 86.0895 61.6908 86.438 61.9105C86.7865 62.1302 87.0497 62.4238 87.2277 62.7912C87.4096 63.1586 87.5005 63.562 87.5005 64.0014V64.6151C87.5005 65.0545 87.4096 65.4579 87.2277 65.8253C87.0459 66.1889 86.7789 66.4825 86.4266 66.706C86.0781 66.9257 85.6501 67.0355 85.1425 67.0355C84.6312 67.0355 84.1993 66.9257 83.8471 66.706C83.4948 66.4825 83.2277 66.1889 83.0459 65.8253C82.8641 65.4579 82.7732 65.0545 82.7732 64.6151ZM84.0971 64.0014V64.6151C84.0971 64.9408 84.1747 65.2363 84.33 65.5014C84.4853 65.7666 84.7562 65.8991 85.1425 65.8991C85.5251 65.8991 85.7921 65.7666 85.9437 65.5014C86.0952 65.2363 86.1709 64.9408 86.1709 64.6151V64.0014C86.1709 63.6757 86.0971 63.3802 85.9493 63.1151C85.8054 62.8499 85.5365 62.7173 85.1425 62.7173C84.7637 62.7173 84.4948 62.8499 84.3357 63.1151C84.1766 63.3802 84.0971 63.6757 84.0971 64.0014ZM76.9209 57.956V57.3423C76.9209 56.9029 77.0118 56.4995 77.1937 56.1321C77.3793 55.7647 77.6482 55.4711 78.0005 55.2514C78.3565 55.0317 78.7865 54.9219 79.2902 54.9219C79.8054 54.9219 80.2372 55.0317 80.5857 55.2514C80.9342 55.4711 81.1974 55.7647 81.3755 56.1321C81.5535 56.4995 81.6425 56.9029 81.6425 57.3423V57.956C81.6425 58.3954 81.5516 58.7988 81.3698 59.1662C81.1918 59.5298 80.9266 59.8234 80.5743 60.0469C80.2259 60.2666 79.7978 60.3764 79.2902 60.3764C78.7751 60.3764 78.3414 60.2666 77.9891 60.0469C77.6406 59.8234 77.3755 59.5298 77.1937 59.1662C77.0118 58.7988 76.9209 58.3954 76.9209 57.956ZM78.2505 57.3423V57.956C78.2505 58.2817 78.3262 58.5772 78.4777 58.8423C78.633 59.1075 78.9039 59.2401 79.2902 59.2401C79.669 59.2401 79.9342 59.1075 80.0857 58.8423C80.241 58.5772 80.3187 58.2817 80.3187 57.956V57.3423C80.3187 57.0166 80.2448 56.7211 80.0971 56.456C79.9493 56.1908 79.6804 56.0582 79.2902 56.0582C78.9115 56.0582 78.6425 56.1908 78.4834 56.456C78.3281 56.7211 78.2505 57.0166 78.2505 57.3423ZM77.4607 66.7969L85.4607 55.1605H86.8187L78.8187 66.7969H77.4607Z" fill="#0FBA83"/>
</svg>
