<svg width="810" height="211" viewBox="0 0 810 211" fill="none" xmlns="http://www.w3.org/2000/svg">
<rect x="203" y="81.7969" width="12" height="12" rx="6" fill="#0082FF"/>
<path d="M234.773 85.7969H233.364C233.28 85.3916 233.134 85.0355 232.926 84.7287C232.722 84.4219 232.472 84.1643 232.176 83.956C231.884 83.7438 231.561 83.5848 231.205 83.4787C230.848 83.3726 230.477 83.3196 230.091 83.3196C229.386 83.3196 228.748 83.4976 228.176 83.8537C227.608 84.2098 227.155 84.7344 226.818 85.4276C226.485 86.1207 226.318 86.9711 226.318 87.9787C226.318 88.9863 226.485 89.8366 226.818 90.5298C227.155 91.223 227.608 91.7476 228.176 92.1037C228.748 92.4598 229.386 92.6378 230.091 92.6378C230.477 92.6378 230.848 92.5848 231.205 92.4787C231.561 92.3726 231.884 92.2154 232.176 92.0071C232.472 91.795 232.722 91.5355 232.926 91.2287C233.134 90.9181 233.28 90.562 233.364 90.1605H234.773C234.667 90.7552 234.473 91.2874 234.193 91.7571C233.913 92.2268 233.564 92.6264 233.148 92.956C232.731 93.2817 232.263 93.5298 231.744 93.7003C231.229 93.8707 230.678 93.956 230.091 93.956C229.098 93.956 228.216 93.7135 227.443 93.2287C226.67 92.7438 226.063 92.0545 225.619 91.1605C225.176 90.2666 224.955 89.206 224.955 87.9787C224.955 86.7514 225.176 85.6908 225.619 84.7969C226.063 83.9029 226.67 83.2135 227.443 82.7287C228.216 82.2438 229.098 82.0014 230.091 82.0014C230.678 82.0014 231.229 82.0866 231.744 82.2571C232.263 82.4276 232.731 82.6776 233.148 83.0071C233.564 83.3329 233.913 83.7306 234.193 84.2003C234.473 84.6662 234.667 85.1984 234.773 85.7969ZM236.868 93.7969V85.0696H238.163V86.3878H238.254C238.413 85.956 238.701 85.6056 239.118 85.3366C239.535 85.0677 240.004 84.9332 240.527 84.9332C240.625 84.9332 240.749 84.9351 240.896 84.9389C241.044 84.9427 241.156 84.9484 241.232 84.956V86.3196C241.186 86.3082 241.082 86.2912 240.919 86.2685C240.76 86.242 240.591 86.2287 240.413 86.2287C239.989 86.2287 239.61 86.3177 239.277 86.4957C238.947 86.67 238.686 86.9124 238.493 87.223C238.304 87.5298 238.209 87.8802 238.209 88.2741V93.7969H236.868ZM246.101 93.9787C245.313 93.9787 244.622 93.7912 244.027 93.4162C243.436 93.0412 242.974 92.5166 242.641 91.8423C242.311 91.1681 242.146 90.3802 242.146 89.4787C242.146 88.5696 242.311 87.776 242.641 87.098C242.974 86.42 243.436 85.8935 244.027 85.5185C244.622 85.1435 245.313 84.956 246.101 84.956C246.889 84.956 247.578 85.1435 248.169 85.5185C248.764 85.8935 249.226 86.42 249.555 87.098C249.889 87.776 250.055 88.5696 250.055 89.4787C250.055 90.3802 249.889 91.1681 249.555 91.8423C249.226 92.5166 248.764 93.0412 248.169 93.4162C247.578 93.7912 246.889 93.9787 246.101 93.9787ZM246.101 92.7741C246.699 92.7741 247.192 92.6207 247.578 92.3139C247.964 92.0071 248.25 91.6037 248.436 91.1037C248.622 90.6037 248.714 90.062 248.714 89.4787C248.714 88.8954 248.622 88.3518 248.436 87.848C248.25 87.3442 247.964 86.937 247.578 86.6264C247.192 86.3158 246.699 86.1605 246.101 86.1605C245.502 86.1605 245.01 86.3158 244.624 86.6264C244.237 86.937 243.951 87.3442 243.766 87.848C243.58 88.3518 243.487 88.8954 243.487 89.4787C243.487 90.062 243.58 90.6037 243.766 91.1037C243.951 91.6037 244.237 92.0071 244.624 92.3139C245.01 92.6207 245.502 92.7741 246.101 92.7741ZM253.783 93.7969L251.124 85.0696H252.533L254.419 91.7514H254.51L256.374 85.0696H257.805L259.646 91.7287H259.737L261.624 85.0696H263.033L260.374 93.7969H259.055L257.146 87.0923H257.01L255.101 93.7969H253.783ZM267.804 93.9787C267.077 93.9787 266.435 93.795 265.878 93.4276C265.321 93.0563 264.885 92.5336 264.571 91.8594C264.257 91.1813 264.099 90.3802 264.099 89.456C264.099 88.5393 264.257 87.7438 264.571 87.0696C264.885 86.3954 265.323 85.8745 265.884 85.5071C266.444 85.1397 267.092 84.956 267.827 84.956C268.395 84.956 268.844 85.0507 269.173 85.2401C269.507 85.4257 269.76 85.6378 269.935 85.8764C270.113 86.1113 270.251 86.3045 270.349 86.456H270.463V82.1605H271.804V93.7969H270.509V92.456H270.349C270.251 92.6151 270.111 92.8158 269.929 93.0582C269.747 93.2969 269.488 93.5109 269.151 93.7003C268.813 93.8859 268.365 93.9787 267.804 93.9787ZM267.986 92.7741C268.524 92.7741 268.978 92.634 269.349 92.3537C269.721 92.0696 270.003 91.6776 270.196 91.1776C270.389 90.6738 270.486 90.0923 270.486 89.4332C270.486 88.7817 270.391 88.2116 270.202 87.723C270.012 87.2306 269.732 86.848 269.361 86.5753C268.99 86.2988 268.531 86.1605 267.986 86.1605C267.418 86.1605 266.944 86.3063 266.565 86.598C266.19 86.8859 265.908 87.2779 265.719 87.7741C265.533 88.2666 265.44 88.8196 265.44 89.4332C265.44 90.0545 265.535 90.6188 265.724 91.1264C265.918 91.6302 266.202 92.0317 266.577 92.331C266.955 92.6264 267.425 92.7741 267.986 92.7741ZM280.628 87.0241L279.423 87.3651C279.348 87.1643 279.236 86.9692 279.088 86.7798C278.944 86.5866 278.747 86.4276 278.497 86.3026C278.247 86.1776 277.927 86.1151 277.537 86.1151C277.003 86.1151 276.558 86.2382 276.202 86.4844C275.849 86.7268 275.673 87.0355 275.673 87.4105C275.673 87.7438 275.795 88.0071 276.037 88.2003C276.279 88.3935 276.658 88.5545 277.173 88.6832L278.469 89.0014C279.249 89.1908 279.83 89.4806 280.213 89.8707C280.596 90.2571 280.787 90.7552 280.787 91.3651C280.787 91.8651 280.643 92.312 280.355 92.706C280.071 93.0999 279.673 93.4105 279.162 93.6378C278.651 93.8651 278.056 93.9787 277.378 93.9787C276.488 93.9787 275.751 93.7855 275.168 93.3991C274.584 93.0128 274.215 92.4484 274.06 91.706L275.332 91.3878C275.454 91.8575 275.683 92.2098 276.02 92.4446C276.361 92.6795 276.806 92.7969 277.355 92.7969C277.98 92.7969 278.476 92.6643 278.844 92.3991C279.215 92.1302 279.401 91.8082 279.401 91.4332C279.401 91.1302 279.295 90.8764 279.082 90.6719C278.87 90.4635 278.545 90.3082 278.105 90.206L276.651 89.8651C275.851 89.6757 275.264 89.3821 274.889 88.9844C274.518 88.5829 274.332 88.081 274.332 87.4787C274.332 86.9863 274.471 86.5507 274.747 86.1719C275.027 85.7931 275.408 85.4957 275.889 85.2798C276.374 85.0639 276.923 84.956 277.537 84.956C278.401 84.956 279.079 85.1454 279.571 85.5241C280.067 85.9029 280.42 86.4029 280.628 87.0241ZM285.374 94.0014C284.821 94.0014 284.319 93.8973 283.868 93.6889C283.417 93.4768 283.059 93.1719 282.794 92.7741C282.529 92.3726 282.396 91.8878 282.396 91.3196C282.396 90.8196 282.495 90.4143 282.692 90.1037C282.889 89.7893 283.152 89.5431 283.482 89.3651C283.811 89.187 284.175 89.0545 284.572 88.9673C284.974 88.8764 285.377 88.8045 285.783 88.7514C286.313 88.6832 286.743 88.6321 287.072 88.598C287.406 88.5601 287.648 88.4976 287.8 88.4105C287.955 88.3234 288.033 88.1719 288.033 87.956V87.9105C288.033 87.3499 287.879 86.9143 287.572 86.6037C287.269 86.2931 286.809 86.1378 286.192 86.1378C285.552 86.1378 285.05 86.2779 284.686 86.5582C284.322 86.8385 284.067 87.1378 283.919 87.456L282.646 87.0014C282.874 86.4711 283.177 86.0582 283.555 85.7628C283.938 85.4635 284.355 85.2552 284.805 85.1378C285.26 85.0166 285.707 84.956 286.146 84.956C286.427 84.956 286.749 84.9901 287.112 85.0582C287.48 85.1226 287.834 85.2571 288.175 85.4616C288.519 85.6662 288.805 85.9749 289.033 86.3878C289.26 86.8007 289.374 87.3537 289.374 88.0469V93.7969H288.033V92.6151H287.964C287.874 92.8045 287.722 93.0071 287.51 93.223C287.298 93.4389 287.016 93.6226 286.663 93.7741C286.311 93.9257 285.881 94.0014 285.374 94.0014ZM285.578 92.7969C286.108 92.7969 286.555 92.6927 286.919 92.4844C287.286 92.276 287.563 92.0071 287.749 91.6776C287.938 91.348 288.033 91.0014 288.033 90.6378V89.4105C287.976 89.4787 287.851 89.5412 287.658 89.598C287.468 89.651 287.249 89.6984 286.999 89.7401C286.752 89.7779 286.512 89.812 286.277 89.8423C286.046 89.8688 285.858 89.8916 285.714 89.9105C285.366 89.956 285.04 90.0298 284.737 90.1321C284.438 90.2306 284.196 90.3802 284.01 90.581C283.828 90.7779 283.737 91.0469 283.737 91.3878C283.737 91.8537 283.91 92.206 284.254 92.4446C284.603 92.6795 285.044 92.7969 285.578 92.7969ZM293.162 82.1605V93.7969H291.821V82.1605H293.162ZM299.277 93.9787C298.436 93.9787 297.711 93.7931 297.101 93.4219C296.495 93.0469 296.027 92.5241 295.697 91.8537C295.372 91.1795 295.209 90.3954 295.209 89.5014C295.209 88.6075 295.372 87.8196 295.697 87.1378C296.027 86.4522 296.485 85.9181 297.072 85.5355C297.663 85.1491 298.353 84.956 299.141 84.956C299.595 84.956 300.044 85.0317 300.487 85.1832C300.93 85.3348 301.334 85.581 301.697 85.9219C302.061 86.259 302.351 86.706 302.567 87.2628C302.783 87.8196 302.891 88.5052 302.891 89.3196V89.8878H296.163V88.7287H301.527C301.527 88.2363 301.429 87.7969 301.232 87.4105C301.038 87.0241 300.762 86.7192 300.402 86.4957C300.046 86.2723 299.625 86.1605 299.141 86.1605C298.607 86.1605 298.144 86.2931 297.754 86.5582C297.368 86.8196 297.071 87.1605 296.862 87.581C296.654 88.0014 296.55 88.4522 296.55 88.9332V89.706C296.55 90.3651 296.663 90.9238 296.891 91.3821C297.122 91.8366 297.442 92.1832 297.851 92.4219C298.26 92.6567 298.735 92.7741 299.277 92.7741C299.629 92.7741 299.947 92.7249 300.232 92.6264C300.519 92.5241 300.768 92.3726 300.976 92.1719C301.184 91.9673 301.345 91.7135 301.459 91.4105L302.754 91.7741C302.618 92.2135 302.389 92.5999 302.067 92.9332C301.745 93.2628 301.347 93.5204 300.874 93.706C300.4 93.8878 299.868 93.9787 299.277 93.9787ZM309.43 93.7969V85.0696H310.771V93.7969H309.43ZM310.112 83.6151C309.851 83.6151 309.625 83.526 309.436 83.348C309.25 83.17 309.158 82.956 309.158 82.706C309.158 82.456 309.25 82.242 309.436 82.0639C309.625 81.8859 309.851 81.7969 310.112 81.7969C310.374 81.7969 310.597 81.8859 310.783 82.0639C310.972 82.242 311.067 82.456 311.067 82.706C311.067 82.956 310.972 83.17 310.783 83.348C310.597 83.526 310.374 83.6151 310.112 83.6151ZM314.568 88.5469V93.7969H313.227V85.0696H314.523V86.4332H314.636C314.841 85.9901 315.152 85.634 315.568 85.3651C315.985 85.0923 316.523 84.956 317.182 84.956C317.773 84.956 318.29 85.0772 318.733 85.3196C319.176 85.5582 319.521 85.9219 319.767 86.4105C320.013 86.8954 320.136 87.509 320.136 88.2514V93.7969H318.795V88.3423C318.795 87.6567 318.617 87.1226 318.261 86.7401C317.905 86.3537 317.417 86.1605 316.795 86.1605C316.367 86.1605 315.985 86.2533 315.648 86.4389C315.314 86.6245 315.051 86.8954 314.858 87.2514C314.665 87.6075 314.568 88.0393 314.568 88.5469ZM329.411 85.0696L326.183 93.7969H324.82L321.592 85.0696H323.047L325.456 92.0241H325.547L327.956 85.0696H329.411ZM334.527 93.9787C333.686 93.9787 332.961 93.7931 332.351 93.4219C331.745 93.0469 331.277 92.5241 330.947 91.8537C330.622 91.1795 330.459 90.3954 330.459 89.5014C330.459 88.6075 330.622 87.8196 330.947 87.1378C331.277 86.4522 331.735 85.9181 332.322 85.5355C332.913 85.1491 333.603 84.956 334.391 84.956C334.845 84.956 335.294 85.0317 335.737 85.1832C336.18 85.3348 336.584 85.581 336.947 85.9219C337.311 86.259 337.601 86.706 337.817 87.2628C338.033 87.8196 338.141 88.5052 338.141 89.3196V89.8878H331.413V88.7287H336.777C336.777 88.2363 336.679 87.7969 336.482 87.4105C336.288 87.0241 336.012 86.7192 335.652 86.4957C335.296 86.2723 334.875 86.1605 334.391 86.1605C333.857 86.1605 333.394 86.2931 333.004 86.5582C332.618 86.8196 332.321 87.1605 332.112 87.581C331.904 88.0014 331.8 88.4522 331.8 88.9332V89.706C331.8 90.3651 331.913 90.9238 332.141 91.3821C332.372 91.8366 332.692 92.1832 333.101 92.4219C333.51 92.6567 333.985 92.7741 334.527 92.7741C334.879 92.7741 335.197 92.7249 335.482 92.6264C335.769 92.5241 336.018 92.3726 336.226 92.1719C336.434 91.9673 336.595 91.7135 336.709 91.4105L338.004 91.7741C337.868 92.2135 337.639 92.5999 337.317 92.9332C336.995 93.2628 336.597 93.5204 336.124 93.706C335.65 93.8878 335.118 93.9787 334.527 93.9787ZM346.362 87.0241L345.158 87.3651C345.082 87.1643 344.97 86.9692 344.822 86.7798C344.679 86.5866 344.482 86.4276 344.232 86.3026C343.982 86.1776 343.661 86.1151 343.271 86.1151C342.737 86.1151 342.292 86.2382 341.936 86.4844C341.584 86.7268 341.408 87.0355 341.408 87.4105C341.408 87.7438 341.529 88.0071 341.771 88.2003C342.014 88.3935 342.393 88.5545 342.908 88.6832L344.203 89.0014C344.983 89.1908 345.565 89.4806 345.947 89.8707C346.33 90.2571 346.521 90.7552 346.521 91.3651C346.521 91.8651 346.377 92.312 346.089 92.706C345.805 93.0999 345.408 93.4105 344.896 93.6378C344.385 93.8651 343.79 93.9787 343.112 93.9787C342.222 93.9787 341.485 93.7855 340.902 93.3991C340.319 93.0128 339.949 92.4484 339.794 91.706L341.067 91.3878C341.188 91.8575 341.417 92.2098 341.754 92.4446C342.095 92.6795 342.54 92.7969 343.089 92.7969C343.714 92.7969 344.211 92.6643 344.578 92.3991C344.949 92.1302 345.135 91.8082 345.135 91.4332C345.135 91.1302 345.029 90.8764 344.817 90.6719C344.605 90.4635 344.279 90.3082 343.839 90.206L342.385 89.8651C341.586 89.6757 340.999 89.3821 340.624 88.9844C340.252 88.5829 340.067 88.081 340.067 87.4787C340.067 86.9863 340.205 86.5507 340.482 86.1719C340.762 85.7931 341.143 85.4957 341.624 85.2798C342.108 85.0639 342.658 84.956 343.271 84.956C344.135 84.956 344.813 85.1454 345.305 85.5241C345.802 85.9029 346.154 86.4029 346.362 87.0241ZM352.335 85.0696V86.206H347.812V85.0696H352.335ZM349.131 82.9787H350.472V91.2969C350.472 91.6757 350.527 91.9598 350.636 92.1491C350.75 92.3348 350.894 92.4598 351.068 92.5241C351.246 92.5848 351.434 92.6151 351.631 92.6151C351.778 92.6151 351.9 92.6075 351.994 92.5923C352.089 92.5734 352.165 92.5582 352.222 92.5469L352.494 93.7514C352.403 93.7855 352.277 93.8196 352.114 93.8537C351.951 93.8916 351.744 93.9105 351.494 93.9105C351.116 93.9105 350.744 93.8291 350.381 93.6662C350.021 93.5033 349.722 93.2552 349.483 92.9219C349.248 92.5885 349.131 92.1681 349.131 91.6605V82.9787ZM357.804 93.9787C357.016 93.9787 356.325 93.7912 355.73 93.4162C355.139 93.0412 354.677 92.5166 354.344 91.8423C354.014 91.1681 353.849 90.3802 353.849 89.4787C353.849 88.5696 354.014 87.776 354.344 87.098C354.677 86.42 355.139 85.8935 355.73 85.5185C356.325 85.1435 357.016 84.956 357.804 84.956C358.592 84.956 359.281 85.1435 359.872 85.5185C360.467 85.8935 360.929 86.42 361.259 87.098C361.592 87.776 361.759 88.5696 361.759 89.4787C361.759 90.3802 361.592 91.1681 361.259 91.8423C360.929 92.5166 360.467 93.0412 359.872 93.4162C359.281 93.7912 358.592 93.9787 357.804 93.9787ZM357.804 92.7741C358.402 92.7741 358.895 92.6207 359.281 92.3139C359.668 92.0071 359.954 91.6037 360.139 91.1037C360.325 90.6037 360.418 90.062 360.418 89.4787C360.418 88.8954 360.325 88.3518 360.139 87.848C359.954 87.3442 359.668 86.937 359.281 86.6264C358.895 86.3158 358.402 86.1605 357.804 86.1605C357.205 86.1605 356.713 86.3158 356.327 86.6264C355.94 86.937 355.654 87.3442 355.469 87.848C355.283 88.3518 355.19 88.8954 355.19 89.4787C355.19 90.062 355.283 90.6037 355.469 91.1037C355.654 91.6037 355.94 92.0071 356.327 92.3139C356.713 92.6207 357.205 92.7741 357.804 92.7741ZM363.805 93.7969V85.0696H365.101V86.3878H365.192C365.351 85.956 365.639 85.6056 366.055 85.3366C366.472 85.0677 366.942 84.9332 367.464 84.9332C367.563 84.9332 367.686 84.9351 367.834 84.9389C367.982 84.9427 368.093 84.9484 368.169 84.956V86.3196C368.124 86.3082 368.019 86.2912 367.857 86.2685C367.697 86.242 367.529 86.2287 367.351 86.2287C366.927 86.2287 366.548 86.3177 366.214 86.4957C365.885 86.67 365.624 86.9124 365.43 87.223C365.241 87.5298 365.146 87.8802 365.146 88.2741V93.7969H363.805ZM375.94 87.0241L374.736 87.3651C374.66 87.1643 374.548 86.9692 374.401 86.7798C374.257 86.5866 374.06 86.4276 373.81 86.3026C373.56 86.1776 373.24 86.1151 372.849 86.1151C372.315 86.1151 371.87 86.2382 371.514 86.4844C371.162 86.7268 370.986 87.0355 370.986 87.4105C370.986 87.7438 371.107 88.0071 371.349 88.2003C371.592 88.3935 371.971 88.5545 372.486 88.6832L373.781 89.0014C374.562 89.1908 375.143 89.4806 375.526 89.8707C375.908 90.2571 376.099 90.7552 376.099 91.3651C376.099 91.8651 375.955 92.312 375.668 92.706C375.384 93.0999 374.986 93.4105 374.474 93.6378C373.963 93.8651 373.368 93.9787 372.69 93.9787C371.8 93.9787 371.063 93.7855 370.48 93.3991C369.897 93.0128 369.527 92.4484 369.372 91.706L370.645 91.3878C370.766 91.8575 370.995 92.2098 371.332 92.4446C371.673 92.6795 372.118 92.7969 372.668 92.7969C373.293 92.7969 373.789 92.6643 374.156 92.3991C374.527 92.1302 374.713 91.8082 374.713 91.4332C374.713 91.1302 374.607 90.8764 374.395 90.6719C374.183 90.4635 373.857 90.3082 373.418 90.206L371.963 89.8651C371.164 89.6757 370.577 89.3821 370.202 88.9844C369.83 88.5829 369.645 88.081 369.645 87.4787C369.645 86.9863 369.783 86.5507 370.06 86.1719C370.34 85.7931 370.721 85.4957 371.202 85.2798C371.687 85.0639 372.236 84.956 372.849 84.956C373.713 84.956 374.391 85.1454 374.884 85.5241C375.38 85.9029 375.732 86.4029 375.94 87.0241ZM379.095 93.8878C378.815 93.8878 378.574 93.7874 378.374 93.5866C378.173 93.3859 378.072 93.1454 378.072 92.8651C378.072 92.5848 378.173 92.3442 378.374 92.1435C378.574 91.9427 378.815 91.8423 379.095 91.8423C379.375 91.8423 379.616 91.9427 379.817 92.1435C380.018 92.3442 380.118 92.5848 380.118 92.8651C380.118 93.0507 380.071 93.2211 379.976 93.3764C379.885 93.5317 379.762 93.6567 379.607 93.7514C379.455 93.8423 379.285 93.8878 379.095 93.8878ZM379.095 87.4105C378.815 87.4105 378.574 87.3101 378.374 87.1094C378.173 86.9086 378.072 86.6681 378.072 86.3878C378.072 86.1075 378.173 85.867 378.374 85.6662C378.574 85.4654 378.815 85.3651 379.095 85.3651C379.375 85.3651 379.616 85.4654 379.817 85.6662C380.018 85.867 380.118 86.1075 380.118 86.3878C380.118 86.5734 380.071 86.7438 379.976 86.8991C379.885 87.0545 379.762 87.1795 379.607 87.2741C379.455 87.3651 379.285 87.4105 379.095 87.4105ZM390.729 93.956C389.948 93.956 389.259 93.8177 388.661 93.5412C388.066 93.2609 387.602 92.8764 387.268 92.3878C386.935 91.8954 386.77 91.3348 386.774 90.706C386.77 90.2135 386.867 89.759 387.064 89.3423C387.261 88.9219 387.53 88.5715 387.871 88.2912C388.215 88.0071 388.6 87.8272 389.024 87.7514V87.6832C388.467 87.5393 388.024 87.2268 387.695 86.7457C387.365 86.2609 387.202 85.7098 387.206 85.0923C387.202 84.5014 387.352 83.973 387.655 83.5071C387.958 83.0412 388.375 82.6738 388.905 82.4048C389.439 82.1359 390.047 82.0014 390.729 82.0014C391.403 82.0014 392.005 82.1359 392.536 82.4048C393.066 82.6738 393.482 83.0412 393.786 83.5071C394.092 83.973 394.248 84.5014 394.251 85.0923C394.248 85.7098 394.079 86.2609 393.746 86.7457C393.416 87.2268 392.979 87.5393 392.433 87.6832V87.7514C392.854 87.8272 393.232 88.0071 393.57 88.2912C393.907 88.5715 394.176 88.9219 394.376 89.3423C394.577 89.759 394.679 90.2135 394.683 90.706C394.679 91.3348 394.509 91.8954 394.172 92.3878C393.839 92.8764 393.375 93.2609 392.78 93.5412C392.189 93.8177 391.505 93.956 390.729 93.956ZM390.729 92.706C391.255 92.706 391.71 92.6207 392.092 92.4503C392.475 92.2798 392.77 92.0393 392.979 91.7287C393.187 91.4181 393.293 91.0545 393.297 90.6378C393.293 90.1984 393.179 89.8101 392.956 89.473C392.732 89.1359 392.428 88.8707 392.041 88.6776C391.659 88.4844 391.221 88.3878 390.729 88.3878C390.232 88.3878 389.789 88.4844 389.399 88.6776C389.013 88.8707 388.708 89.1359 388.484 89.473C388.265 89.8101 388.157 90.1984 388.161 90.6378C388.157 91.0545 388.257 91.4181 388.462 91.7287C388.67 92.0393 388.967 92.2798 389.354 92.4503C389.74 92.6207 390.198 92.706 390.729 92.706ZM390.729 87.1832C391.145 87.1832 391.515 87.0999 391.837 86.9332C392.162 86.7666 392.418 86.5336 392.604 86.2344C392.789 85.9351 392.884 85.5848 392.888 85.1832C392.884 84.7893 392.791 84.4465 392.609 84.1548C392.428 83.8594 392.176 83.6321 391.854 83.473C391.532 83.3101 391.157 83.2287 390.729 83.2287C390.293 83.2287 389.912 83.3101 389.587 83.473C389.261 83.6321 389.009 83.8594 388.831 84.1548C388.653 84.4465 388.566 84.7893 388.57 85.1832C388.566 85.5848 388.655 85.9351 388.837 86.2344C389.022 86.5336 389.278 86.7666 389.604 86.9332C389.929 87.0999 390.304 87.1832 390.729 87.1832ZM400.656 93.956C399.8 93.956 399.071 93.723 398.469 93.2571C397.866 92.7874 397.406 92.1075 397.088 91.2173C396.77 90.3234 396.611 89.2438 396.611 87.9787C396.611 86.7211 396.77 85.6473 397.088 84.7571C397.41 83.8632 397.872 83.1813 398.474 82.7116C399.08 82.2382 399.808 82.0014 400.656 82.0014C401.505 82.0014 402.23 82.2382 402.832 82.7116C403.438 83.1813 403.901 83.8632 404.219 84.7571C404.541 85.6473 404.702 86.7211 404.702 87.9787C404.702 89.2438 404.543 90.3234 404.224 91.2173C403.906 92.1075 403.446 92.7874 402.844 93.2571C402.241 93.723 401.512 93.956 400.656 93.956ZM400.656 92.706C401.505 92.706 402.164 92.2969 402.634 91.4787C403.103 90.6605 403.338 89.4938 403.338 87.9787C403.338 86.9711 403.23 86.1132 403.014 85.4048C402.802 84.6965 402.495 84.1567 402.094 83.7855C401.696 83.4143 401.217 83.2287 400.656 83.2287C399.815 83.2287 399.158 83.6435 398.685 84.473C398.211 85.2988 397.974 86.4673 397.974 87.9787C397.974 88.9863 398.08 89.8423 398.293 90.5469C398.505 91.2514 398.81 91.7874 399.207 92.1548C399.609 92.5223 400.092 92.706 400.656 92.706ZM412.793 91.6151V91.0014C412.793 90.5772 412.88 90.1889 413.054 89.8366C413.232 89.4806 413.49 89.1965 413.827 88.9844C414.168 88.7685 414.58 88.6605 415.065 88.6605C415.558 88.6605 415.971 88.7685 416.304 88.9844C416.637 89.1965 416.889 89.4806 417.06 89.8366C417.23 90.1889 417.315 90.5772 417.315 91.0014V91.6151C417.315 92.0393 417.228 92.4295 417.054 92.7855C416.884 93.1378 416.63 93.4219 416.293 93.6378C415.959 93.8499 415.55 93.956 415.065 93.956C414.573 93.956 414.158 93.8499 413.821 93.6378C413.484 93.4219 413.228 93.1378 413.054 92.7855C412.88 92.4295 412.793 92.0393 412.793 91.6151ZM413.952 91.0014V91.6151C413.952 91.9673 414.035 92.2836 414.202 92.5639C414.368 92.8404 414.656 92.9787 415.065 92.9787C415.463 92.9787 415.743 92.8404 415.906 92.5639C416.073 92.2836 416.156 91.9673 416.156 91.6151V91.0014C416.156 90.6491 416.077 90.3348 415.918 90.0582C415.759 89.7779 415.474 89.6378 415.065 89.6378C414.668 89.6378 414.382 89.7779 414.207 90.0582C414.037 90.3348 413.952 90.6491 413.952 91.0014ZM406.997 84.956V84.3423C406.997 83.9181 407.084 83.5298 407.259 83.1776C407.437 82.8215 407.694 82.5374 408.031 82.3253C408.372 82.1094 408.785 82.0014 409.27 82.0014C409.762 82.0014 410.175 82.1094 410.509 82.3253C410.842 82.5374 411.094 82.8215 411.264 83.1776C411.435 83.5298 411.52 83.9181 411.52 84.3423V84.956C411.52 85.3802 411.433 85.7704 411.259 86.1264C411.088 86.4787 410.834 86.7628 410.497 86.9787C410.164 87.1908 409.755 87.2969 409.27 87.2969C408.777 87.2969 408.363 87.1908 408.026 86.9787C407.688 86.7628 407.433 86.4787 407.259 86.1264C407.084 85.7704 406.997 85.3802 406.997 84.956ZM408.156 84.3423V84.956C408.156 85.3082 408.24 85.6245 408.406 85.9048C408.573 86.1813 408.861 86.3196 409.27 86.3196C409.668 86.3196 409.948 86.1813 410.111 85.9048C410.277 85.6245 410.361 85.3082 410.361 84.956V84.3423C410.361 83.9901 410.281 83.6757 410.122 83.3991C409.963 83.1188 409.679 82.9787 409.27 82.9787C408.872 82.9787 408.586 83.1188 408.412 83.3991C408.241 83.6757 408.156 83.9901 408.156 84.3423ZM407.429 93.7969L415.429 82.1605H416.724L408.724 93.7969H407.429Z" fill="#202020"/>
<rect x="203" y="117.797" width="12" height="12" rx="6" fill="#FAA002"/>
<path d="M225.409 129.797V118.161H232.386V119.411H226.818V123.342H231.864V124.592H226.818V129.797H225.409ZM237.523 129.979C236.735 129.979 236.044 129.791 235.449 129.416C234.858 129.041 234.396 128.517 234.062 127.842C233.733 127.168 233.568 126.38 233.568 125.479C233.568 124.57 233.733 123.776 234.062 123.098C234.396 122.42 234.858 121.893 235.449 121.518C236.044 121.143 236.735 120.956 237.523 120.956C238.311 120.956 239 121.143 239.591 121.518C240.186 121.893 240.648 122.42 240.977 123.098C241.311 123.776 241.477 124.57 241.477 125.479C241.477 126.38 241.311 127.168 240.977 127.842C240.648 128.517 240.186 129.041 239.591 129.416C239 129.791 238.311 129.979 237.523 129.979ZM237.523 128.774C238.121 128.774 238.614 128.621 239 128.314C239.386 128.007 239.672 127.604 239.858 127.104C240.044 126.604 240.136 126.062 240.136 125.479C240.136 124.895 240.044 124.352 239.858 123.848C239.672 123.344 239.386 122.937 239 122.626C238.614 122.316 238.121 122.161 237.523 122.161C236.924 122.161 236.432 122.316 236.045 122.626C235.659 122.937 235.373 123.344 235.188 123.848C235.002 124.352 234.909 124.895 234.909 125.479C234.909 126.062 235.002 126.604 235.188 127.104C235.373 127.604 235.659 128.007 236.045 128.314C236.432 128.621 236.924 128.774 237.523 128.774ZM249.024 126.229V121.07H250.365V129.797H249.024V128.32H248.933C248.729 128.763 248.411 129.14 247.979 129.45C247.547 129.757 247.001 129.911 246.342 129.911C245.797 129.911 245.312 129.791 244.888 129.553C244.464 129.31 244.13 128.946 243.888 128.462C243.645 127.973 243.524 127.357 243.524 126.615V121.07H244.865V126.524C244.865 127.161 245.043 127.668 245.399 128.047C245.759 128.426 246.217 128.615 246.774 128.615C247.107 128.615 247.446 128.53 247.791 128.359C248.14 128.189 248.431 127.928 248.666 127.575C248.905 127.223 249.024 126.774 249.024 126.229ZM254.162 124.547V129.797H252.821V121.07H254.116V122.433H254.23C254.435 121.99 254.745 121.634 255.162 121.365C255.579 121.092 256.116 120.956 256.776 120.956C257.366 120.956 257.884 121.077 258.327 121.32C258.77 121.558 259.115 121.922 259.361 122.411C259.607 122.895 259.73 123.509 259.73 124.251V129.797H258.389V124.342C258.389 123.657 258.211 123.123 257.855 122.74C257.499 122.354 257.01 122.161 256.389 122.161C255.961 122.161 255.579 122.253 255.241 122.439C254.908 122.625 254.645 122.895 254.452 123.251C254.259 123.607 254.162 124.039 254.162 124.547ZM265.476 129.979C264.749 129.979 264.107 129.795 263.55 129.428C262.993 129.056 262.557 128.534 262.243 127.859C261.929 127.181 261.771 126.38 261.771 125.456C261.771 124.539 261.929 123.744 262.243 123.07C262.557 122.395 262.995 121.875 263.555 121.507C264.116 121.14 264.764 120.956 265.499 120.956C266.067 120.956 266.516 121.051 266.845 121.24C267.179 121.426 267.432 121.638 267.607 121.876C267.785 122.111 267.923 122.304 268.021 122.456H268.135V118.161H269.476V129.797H268.18V128.456H268.021C267.923 128.615 267.783 128.816 267.601 129.058C267.419 129.297 267.16 129.511 266.822 129.7C266.485 129.886 266.036 129.979 265.476 129.979ZM265.658 128.774C266.196 128.774 266.65 128.634 267.021 128.354C267.393 128.07 267.675 127.678 267.868 127.178C268.061 126.674 268.158 126.092 268.158 125.433C268.158 124.782 268.063 124.212 267.874 123.723C267.684 123.231 267.404 122.848 267.033 122.575C266.661 122.299 266.203 122.161 265.658 122.161C265.089 122.161 264.616 122.306 264.237 122.598C263.862 122.886 263.58 123.278 263.391 123.774C263.205 124.267 263.112 124.82 263.112 125.433C263.112 126.054 263.207 126.619 263.396 127.126C263.589 127.63 263.874 128.032 264.249 128.331C264.627 128.626 265.097 128.774 265.658 128.774ZM274.686 130.001C274.133 130.001 273.631 129.897 273.18 129.689C272.73 129.477 272.372 129.172 272.107 128.774C271.841 128.373 271.709 127.888 271.709 127.32C271.709 126.82 271.807 126.414 272.004 126.104C272.201 125.789 272.464 125.543 272.794 125.365C273.124 125.187 273.487 125.054 273.885 124.967C274.286 124.876 274.69 124.804 275.095 124.751C275.625 124.683 276.055 124.632 276.385 124.598C276.718 124.56 276.961 124.498 277.112 124.411C277.268 124.323 277.345 124.172 277.345 123.956V123.911C277.345 123.35 277.192 122.914 276.885 122.604C276.582 122.293 276.122 122.138 275.504 122.138C274.864 122.138 274.362 122.278 273.999 122.558C273.635 122.839 273.379 123.138 273.232 123.456L271.959 123.001C272.186 122.471 272.489 122.058 272.868 121.763C273.25 121.464 273.667 121.255 274.118 121.138C274.572 121.017 275.019 120.956 275.459 120.956C275.739 120.956 276.061 120.99 276.425 121.058C276.792 121.123 277.146 121.257 277.487 121.462C277.832 121.666 278.118 121.975 278.345 122.388C278.572 122.801 278.686 123.354 278.686 124.047V129.797H277.345V128.615H277.277C277.186 128.804 277.035 129.007 276.822 129.223C276.61 129.439 276.328 129.623 275.976 129.774C275.624 129.926 275.194 130.001 274.686 130.001ZM274.891 128.797C275.421 128.797 275.868 128.693 276.232 128.484C276.599 128.276 276.875 128.007 277.061 127.678C277.25 127.348 277.345 127.001 277.345 126.638V125.411C277.288 125.479 277.163 125.541 276.97 125.598C276.781 125.651 276.561 125.698 276.311 125.74C276.065 125.778 275.824 125.812 275.589 125.842C275.358 125.869 275.171 125.892 275.027 125.911C274.679 125.956 274.353 126.03 274.05 126.132C273.75 126.231 273.508 126.38 273.322 126.581C273.141 126.778 273.05 127.047 273.05 127.388C273.05 127.854 273.222 128.206 273.567 128.445C273.915 128.679 274.357 128.797 274.891 128.797ZM284.929 121.07V122.206H280.406V121.07H284.929ZM281.724 118.979H283.065V127.297C283.065 127.676 283.12 127.96 283.23 128.149C283.344 128.335 283.488 128.46 283.662 128.524C283.84 128.585 284.027 128.615 284.224 128.615C284.372 128.615 284.493 128.607 284.588 128.592C284.683 128.573 284.759 128.558 284.815 128.547L285.088 129.751C284.997 129.786 284.87 129.82 284.707 129.854C284.545 129.892 284.338 129.911 284.088 129.911C283.709 129.911 283.338 129.829 282.974 129.666C282.615 129.503 282.315 129.255 282.077 128.922C281.842 128.589 281.724 128.168 281.724 127.661V118.979ZM286.946 129.797V121.07H288.287V129.797H286.946ZM287.628 119.615C287.366 119.615 287.141 119.526 286.952 119.348C286.766 119.17 286.673 118.956 286.673 118.706C286.673 118.456 286.766 118.242 286.952 118.064C287.141 117.886 287.366 117.797 287.628 117.797C287.889 117.797 288.113 117.886 288.298 118.064C288.488 118.242 288.582 118.456 288.582 118.706C288.582 118.956 288.488 119.17 288.298 119.348C288.113 119.526 287.889 119.615 287.628 119.615ZM294.288 129.979C293.5 129.979 292.809 129.791 292.214 129.416C291.624 129.041 291.161 128.517 290.828 127.842C290.499 127.168 290.334 126.38 290.334 125.479C290.334 124.57 290.499 123.776 290.828 123.098C291.161 122.42 291.624 121.893 292.214 121.518C292.809 121.143 293.5 120.956 294.288 120.956C295.076 120.956 295.766 121.143 296.357 121.518C296.951 121.893 297.413 122.42 297.743 123.098C298.076 123.776 298.243 124.57 298.243 125.479C298.243 126.38 298.076 127.168 297.743 127.842C297.413 128.517 296.951 129.041 296.357 129.416C295.766 129.791 295.076 129.979 294.288 129.979ZM294.288 128.774C294.887 128.774 295.379 128.621 295.766 128.314C296.152 128.007 296.438 127.604 296.624 127.104C296.809 126.604 296.902 126.062 296.902 125.479C296.902 124.895 296.809 124.352 296.624 123.848C296.438 123.344 296.152 122.937 295.766 122.626C295.379 122.316 294.887 122.161 294.288 122.161C293.69 122.161 293.197 122.316 292.811 122.626C292.425 122.937 292.139 123.344 291.953 123.848C291.768 124.352 291.675 124.895 291.675 125.479C291.675 126.062 291.768 126.604 291.953 127.104C292.139 127.604 292.425 128.007 292.811 128.314C293.197 128.621 293.69 128.774 294.288 128.774ZM301.631 124.547V129.797H300.29V121.07H301.585V122.433H301.699C301.903 121.99 302.214 121.634 302.631 121.365C303.047 121.092 303.585 120.956 304.244 120.956C304.835 120.956 305.352 121.077 305.795 121.32C306.239 121.558 306.583 121.922 306.83 122.411C307.076 122.895 307.199 123.509 307.199 124.251V129.797H305.858V124.342C305.858 123.657 305.68 123.123 305.324 122.74C304.968 122.354 304.479 122.161 303.858 122.161C303.43 122.161 303.047 122.253 302.71 122.439C302.377 122.625 302.114 122.895 301.92 123.251C301.727 123.607 301.631 124.039 301.631 124.547ZM310.626 129.888C310.346 129.888 310.106 129.787 309.905 129.587C309.704 129.386 309.604 129.145 309.604 128.865C309.604 128.585 309.704 128.344 309.905 128.143C310.106 127.943 310.346 127.842 310.626 127.842C310.907 127.842 311.147 127.943 311.348 128.143C311.549 128.344 311.649 128.585 311.649 128.865C311.649 129.051 311.602 129.221 311.507 129.376C311.416 129.532 311.293 129.657 311.138 129.751C310.986 129.842 310.816 129.888 310.626 129.888ZM310.626 123.411C310.346 123.411 310.106 123.31 309.905 123.109C309.704 122.909 309.604 122.668 309.604 122.388C309.604 122.107 309.704 121.867 309.905 121.666C310.106 121.465 310.346 121.365 310.626 121.365C310.907 121.365 311.147 121.465 311.348 121.666C311.549 121.867 311.649 122.107 311.649 122.388C311.649 122.573 311.602 122.744 311.507 122.899C311.416 123.054 311.293 123.179 311.138 123.274C310.986 123.365 310.816 123.411 310.626 123.411ZM318.533 129.797V128.774L322.374 124.57C322.824 124.077 323.196 123.649 323.487 123.286C323.779 122.918 323.995 122.573 324.135 122.251C324.279 121.926 324.351 121.585 324.351 121.229C324.351 120.82 324.252 120.465 324.055 120.166C323.862 119.867 323.597 119.636 323.26 119.473C322.923 119.31 322.544 119.229 322.124 119.229C321.677 119.229 321.286 119.321 320.953 119.507C320.624 119.689 320.368 119.945 320.186 120.274C320.008 120.604 319.919 120.99 319.919 121.433H318.578C318.578 120.751 318.735 120.153 319.05 119.638C319.364 119.123 319.792 118.721 320.334 118.433C320.879 118.145 321.491 118.001 322.169 118.001C322.851 118.001 323.455 118.145 323.982 118.433C324.508 118.721 324.921 119.109 325.22 119.598C325.519 120.087 325.669 120.63 325.669 121.229C325.669 121.657 325.591 122.075 325.436 122.484C325.285 122.89 325.019 123.342 324.641 123.842C324.266 124.339 323.745 124.945 323.078 125.661L320.464 128.456V128.547H325.874V129.797H318.533ZM332.016 129.956C331.16 129.956 330.43 129.723 329.828 129.257C329.226 128.787 328.766 128.107 328.447 127.217C328.129 126.323 327.97 125.244 327.97 123.979C327.97 122.721 328.129 121.647 328.447 120.757C328.769 119.863 329.232 119.181 329.834 118.712C330.44 118.238 331.167 118.001 332.016 118.001C332.864 118.001 333.589 118.238 334.192 118.712C334.798 119.181 335.26 119.863 335.578 120.757C335.9 121.647 336.061 122.721 336.061 123.979C336.061 125.244 335.902 126.323 335.584 127.217C335.266 128.107 334.805 128.787 334.203 129.257C333.601 129.723 332.872 129.956 332.016 129.956ZM332.016 128.706C332.864 128.706 333.523 128.297 333.993 127.479C334.463 126.661 334.697 125.494 334.697 123.979C334.697 122.971 334.589 122.113 334.374 121.405C334.161 120.696 333.855 120.157 333.453 119.786C333.055 119.414 332.576 119.229 332.016 119.229C331.175 119.229 330.518 119.643 330.044 120.473C329.571 121.299 329.334 122.467 329.334 123.979C329.334 124.986 329.44 125.842 329.652 126.547C329.864 127.251 330.169 127.787 330.567 128.155C330.968 128.522 331.451 128.706 332.016 128.706ZM344.152 127.615V127.001C344.152 126.577 344.239 126.189 344.413 125.837C344.591 125.481 344.849 125.196 345.186 124.984C345.527 124.768 345.94 124.661 346.425 124.661C346.917 124.661 347.33 124.768 347.663 124.984C347.997 125.196 348.249 125.481 348.419 125.837C348.589 126.189 348.675 126.577 348.675 127.001V127.615C348.675 128.039 348.588 128.429 348.413 128.786C348.243 129.138 347.989 129.422 347.652 129.638C347.319 129.85 346.91 129.956 346.425 129.956C345.932 129.956 345.518 129.85 345.18 129.638C344.843 129.422 344.588 129.138 344.413 128.786C344.239 128.429 344.152 128.039 344.152 127.615ZM345.311 127.001V127.615C345.311 127.967 345.394 128.284 345.561 128.564C345.728 128.84 346.016 128.979 346.425 128.979C346.822 128.979 347.103 128.84 347.266 128.564C347.432 128.284 347.516 127.967 347.516 127.615V127.001C347.516 126.649 347.436 126.335 347.277 126.058C347.118 125.778 346.834 125.638 346.425 125.638C346.027 125.638 345.741 125.778 345.567 126.058C345.396 126.335 345.311 126.649 345.311 127.001ZM338.357 120.956V120.342C338.357 119.918 338.444 119.53 338.618 119.178C338.796 118.821 339.054 118.537 339.391 118.325C339.732 118.109 340.144 118.001 340.629 118.001C341.122 118.001 341.535 118.109 341.868 118.325C342.201 118.537 342.453 118.821 342.624 119.178C342.794 119.53 342.879 119.918 342.879 120.342V120.956C342.879 121.38 342.792 121.77 342.618 122.126C342.447 122.479 342.194 122.763 341.857 122.979C341.523 123.191 341.114 123.297 340.629 123.297C340.137 123.297 339.722 123.191 339.385 122.979C339.048 122.763 338.792 122.479 338.618 122.126C338.444 121.77 338.357 121.38 338.357 120.956ZM339.516 120.342V120.956C339.516 121.308 339.599 121.625 339.766 121.905C339.932 122.181 340.22 122.32 340.629 122.32C341.027 122.32 341.307 122.181 341.47 121.905C341.637 121.625 341.72 121.308 341.72 120.956V120.342C341.72 119.99 341.641 119.676 341.482 119.399C341.322 119.119 341.038 118.979 340.629 118.979C340.232 118.979 339.946 119.119 339.771 119.399C339.601 119.676 339.516 119.99 339.516 120.342ZM338.788 129.797L346.788 118.161H348.084L340.084 129.797H338.788Z" fill="#202020"/>
<circle cx="89.5" cy="105.797" r="74.5" stroke="#0082FF" stroke-width="30"/>
<mask id="path-6-inside-1_1_921" fill="white">
<path d="M89.5 16.2969C74.3468 16.2969 59.4417 20.1443 46.1817 27.4784C32.9217 34.8126 21.7409 45.3935 13.6873 58.2293C5.63363 71.065 0.970851 85.7355 0.135952 100.866C-0.698948 115.996 2.32137 131.09 8.91382 144.734L89.5 105.797V16.2969Z"/>
</mask>
<path d="M89.5 16.2969C74.3468 16.2969 59.4417 20.1443 46.1817 27.4784C32.9217 34.8126 21.7409 45.3935 13.6873 58.2293C5.63363 71.065 0.970851 85.7355 0.135952 100.866C-0.698948 115.996 2.32137 131.09 8.91382 144.734L89.5 105.797V16.2969Z" stroke="#FAA002" stroke-width="60" mask="url(#path-6-inside-1_1_921)"/>
<circle cx="89.5" cy="105.5" r="59.5" fill="white"/>
<circle cx="89.5" cy="105.5" r="59.5" stroke="#0082FF"/>
</svg>
